<?xml version="1.0" encoding="utf-8"?>
<!-- Generator: Adobe Illustrator 26.0.1, SVG Export Plug-In . SVG Version: 6.00 Build 0)  -->
<svg version="1.1" id="Layer_1" xmlns="http://www.w3.org/2000/svg" xmlns:xlink="http://www.w3.org/1999/xlink" x="0px" y="0px"
	 viewBox="0 0 4000 4000" style="enable-background:new 0 0 4000 4000;" xml:space="preserve">
<style type="text/css">
	
		.st0{clip-path:url(#SVGID_00000069383599381734366800000010558102381522052775_);fill:url(#SVGID_00000159434570335178203960000018435344645703207555_);}
	.st1{fill:url(#SVGID_00000064339528392294578720000012635603729939909285_);}
	.st2{fill:url(#SVGID_00000112630796002218700040000003323605489941795208_);}
	.st3{fill:url(#SVGID_00000170279273337005665830000007137410933727898787_);}
	.st4{fill:url(#SVGID_00000129188770591493366400000016992362147174860984_);}
</style>
<g>
	<defs>
		<path id="SVGID_1_" d="M2826,2000.15c0-455.94-369.61-825.56-825.56-825.56c-455.93,0-825.55,369.61-825.55,825.56
			c0,455.94,369.61,825.55,825.55,825.55C2456.39,2825.7,2826,2456.08,2826,2000.15 M2000.45,1591.54
			c-69.11,0-125.13-56.01-125.13-125.12c0-69.1,56.02-125.12,125.13-125.12c69.11,0,125.12,56.02,125.12,125.12
			C2125.57,1535.53,2069.56,1591.54,2000.45,1591.54z M1853.21,1897.14l-251.4-311.95l-137.88-171.08l389.28,188.56l147.24,198.32
			l147.22-198.32l389.29-188.56l-137.88,171.08l-251.41,311.95l-147.22,761.86L1853.21,1897.14z"/>
	</defs>
	
		<linearGradient id="SVGID_00000101078821639855846250000012120984631103691142_" gradientUnits="userSpaceOnUse" x1="1651.4711" y1="1251.7605" x2="2349.4243" y2="2748.5261">
		<stop  offset="0" style="stop-color:#230094"/>
		<stop  offset="1" style="stop-color:#E61EFF"/>
	</linearGradient>
	
		<use xlink:href="#SVGID_1_"  style="overflow:visible;fill-rule:evenodd;clip-rule:evenodd;fill:url(#SVGID_00000101078821639855846250000012120984631103691142_);"/>
	<clipPath id="SVGID_00000057108133387648929240000002901879745139039911_">
		<use xlink:href="#SVGID_1_"  style="overflow:visible;"/>
	</clipPath>
	
		<linearGradient id="SVGID_00000023986261706813338850000017079666834272299693_" gradientUnits="userSpaceOnUse" x1="3242.1777" y1="515.1359" x2="4309.3418" y2="2803.6765">
		<stop  offset="0" style="stop-color:#230094"/>
		<stop  offset="1" style="stop-color:#E61EFF"/>
	</linearGradient>
	
		<rect x="2930.42" y="791.42" style="clip-path:url(#SVGID_00000057108133387648929240000002901879745139039911_);fill:url(#SVGID_00000023986261706813338850000017079666834272299693_);" width="1651.1" height="1651.11"/>
</g>
<g>
	
		<linearGradient id="SVGID_00000118397880804882204580000002834737146233461435_" gradientUnits="userSpaceOnUse" x1="4193.9229" y1="865.3801" x2="4460.6108" y2="1525.4561">
		<stop  offset="0" style="stop-color:#230094"/>
		<stop  offset="0.1381" style="stop-color:#37039F"/>
		<stop  offset="0.4219" style="stop-color:#6C0BBC"/>
		<stop  offset="0.8228" style="stop-color:#BF18EA"/>
		<stop  offset="1" style="stop-color:#E61EFF"/>
	</linearGradient>
	<path style="fill:url(#SVGID_00000118397880804882204580000002834737146233461435_);" d="M4410.62,1324.67h185.84v145.9h-378.63
		V855.72h192.79V1324.67z"/>
	
		<linearGradient id="SVGID_00000098916302454645404390000013507076446748877189_" gradientUnits="userSpaceOnUse" x1="4807.6445" y1="780.9236" x2="5070.9199" y2="1432.554">
		<stop  offset="0" style="stop-color:#230094"/>
		<stop  offset="0.1381" style="stop-color:#37039F"/>
		<stop  offset="0.4219" style="stop-color:#6C0BBC"/>
		<stop  offset="0.8228" style="stop-color:#BF18EA"/>
		<stop  offset="1" style="stop-color:#E61EFF"/>
	</linearGradient>
	<path style="fill:url(#SVGID_00000098916302454645404390000013507076446748877189_);" d="M5140.1,855.72v152.84h-163.26v462
		h-192.79v-462h-161.53V855.72H5140.1z"/>
	
		<linearGradient id="SVGID_00000034078656454597619140000002631438244584724407_" gradientUnits="userSpaceOnUse" x1="5261.6133" y1="827.6761" x2="5532.6885" y2="1498.611">
		<stop  offset="0" style="stop-color:#230094"/>
		<stop  offset="0.1381" style="stop-color:#37039F"/>
		<stop  offset="0.4219" style="stop-color:#6C0BBC"/>
		<stop  offset="0.8228" style="stop-color:#BF18EA"/>
		<stop  offset="1" style="stop-color:#E61EFF"/>
	</linearGradient>
	<path style="fill:url(#SVGID_00000034078656454597619140000002631438244584724407_);" d="M5384.99,1009.43v75.55h191.06v145.03
		h-191.06v86.84h217.11v153.71h-409.9V855.72h409.9v153.71H5384.99z"/>
	
		<linearGradient id="SVGID_00000114793683087790743150000012278463349825240765_" gradientUnits="userSpaceOnUse" x1="5820.6094" y1="796.9101" x2="6118.4951" y2="1534.2029">
		<stop  offset="0" style="stop-color:#230094"/>
		<stop  offset="0.1381" style="stop-color:#37039F"/>
		<stop  offset="0.4219" style="stop-color:#6C0BBC"/>
		<stop  offset="0.8228" style="stop-color:#BF18EA"/>
		<stop  offset="1" style="stop-color:#E61EFF"/>
	</linearGradient>
	<path style="fill:url(#SVGID_00000114793683087790743150000012278463349825240765_);" d="M6046.74,1470.57l-178.9-266.61v266.61
		h-192.79V855.72h192.79v258.79l176.29-258.79h217.98l-211.9,294.4L6276,1470.57H6046.74z"/>
</g>
<g>
</g>
<g>
</g>
<g>
</g>
<g>
</g>
<g>
</g>
<g>
</g>
<g>
</g>
<g>
</g>
<g>
</g>
<g>
</g>
<g>
</g>
</svg>
