<?xml version="1.0" encoding="utf-8"?>
<!-- Generator: Adobe Illustrator 26.0.1, SVG Export Plug-In . SVG Version: 6.00 Build 0)  -->
<svg version="1.1" id="Layer_1" xmlns="http://www.w3.org/2000/svg" xmlns:xlink="http://www.w3.org/1999/xlink" x="0px" y="0px"
	 viewBox="0 0 4000 4000" style="enable-background:new 0 0 4000 4000;" xml:space="preserve">
<style type="text/css">
	.st0{fill-rule:evenodd;clip-rule:evenodd;fill:url(#SVGID_1_);}
	.st1{fill-rule:evenodd;clip-rule:evenodd;fill:url(#SVGID_00000047048022391541327230000018052471492651183245_);}
	.st2{fill-rule:evenodd;clip-rule:evenodd;fill:url(#SVGID_00000121988679722160750320000009632353282042584733_);}
	.st3{fill:url(#SVGID_00000057129935892852262620000002831677678394116750_);}
	.st4{fill:url(#SVGID_00000139997661355755394150000013434165940113148572_);}
	.st5{fill:url(#SVGID_00000173846137960447668510000014189539791199444627_);}
	.st6{fill:url(#SVGID_00000180352046420292205980000000888827480273774471_);}
</style>
<linearGradient id="SVGID_1_" gradientUnits="userSpaceOnUse" x1="4773.4712" y1="1547.7605" x2="5471.4243" y2="3044.5261">
	<stop  offset="0" style="stop-color:#230094"/>
	<stop  offset="1" style="stop-color:#E61EFF"/>
</linearGradient>
<path class="st0" d="M5948,2296.15c0-455.94-369.61-825.56-825.56-825.56c-455.93,0-825.55,369.61-825.55,825.56
	c0,455.94,369.61,825.55,825.55,825.55C5578.39,3121.7,5948,2752.08,5948,2296.15"/>
<linearGradient id="SVGID_00000004543682296089668070000005620995348994350216_" gradientUnits="userSpaceOnUse" x1="1933.3582" y1="1179.2561" x2="2067.5405" y2="1467.011">
	<stop  offset="0" style="stop-color:#230094"/>
	<stop  offset="1" style="stop-color:#E61EFF"/>
</linearGradient>
<path style="fill-rule:evenodd;clip-rule:evenodd;fill:url(#SVGID_00000004543682296089668070000005620995348994350216_);" d="
	M2000.45,1481.84c-87.66,0-158.72-71.05-158.72-158.71c0-87.65,71.06-158.71,158.72-158.71s158.71,71.06,158.71,158.71
	C2159.17,1410.79,2088.12,1481.84,2000.45,1481.84z"/>
<linearGradient id="SVGID_00000113314469098810852090000008493885173839308178_" gradientUnits="userSpaceOnUse" x1="1855.9844" y1="1006.7881" x2="2582.3679" y2="2564.5229">
	<stop  offset="0" style="stop-color:#230094"/>
	<stop  offset="1" style="stop-color:#E61EFF"/>
</linearGradient>
<polygon style="fill-rule:evenodd;clip-rule:evenodd;fill:url(#SVGID_00000113314469098810852090000008493885173839308178_);" points="
	1813.69,1869.48 1494.79,1473.78 1319.9,1256.77 1813.69,1495.95 2000.45,1747.52 2187.2,1495.95 2681,1256.77 2506.1,1473.78 
	2187.2,1869.48 2000.45,2835.87 "/>
<g>
	
		<linearGradient id="SVGID_00000076581551903558938230000012958713364826061483_" gradientUnits="userSpaceOnUse" x1="4193.9229" y1="865.3801" x2="4460.6108" y2="1525.4561">
		<stop  offset="0" style="stop-color:#230094"/>
		<stop  offset="0.1381" style="stop-color:#37039F"/>
		<stop  offset="0.4219" style="stop-color:#6C0BBC"/>
		<stop  offset="0.8228" style="stop-color:#BF18EA"/>
		<stop  offset="1" style="stop-color:#E61EFF"/>
	</linearGradient>
	<path style="fill:url(#SVGID_00000076581551903558938230000012958713364826061483_);" d="M4410.62,1324.67h185.84v145.9h-378.63
		V855.72h192.79V1324.67z"/>
	
		<linearGradient id="SVGID_00000183958719749471940810000014612451912162107557_" gradientUnits="userSpaceOnUse" x1="4807.6445" y1="780.9236" x2="5070.9199" y2="1432.554">
		<stop  offset="0" style="stop-color:#230094"/>
		<stop  offset="0.1381" style="stop-color:#37039F"/>
		<stop  offset="0.4219" style="stop-color:#6C0BBC"/>
		<stop  offset="0.8228" style="stop-color:#BF18EA"/>
		<stop  offset="1" style="stop-color:#E61EFF"/>
	</linearGradient>
	<path style="fill:url(#SVGID_00000183958719749471940810000014612451912162107557_);" d="M5140.1,855.72v152.84h-163.26v462
		h-192.79v-462h-161.53V855.72H5140.1z"/>
	
		<linearGradient id="SVGID_00000028321615989239059300000006307106823222186661_" gradientUnits="userSpaceOnUse" x1="5261.6133" y1="827.6761" x2="5532.6885" y2="1498.611">
		<stop  offset="0" style="stop-color:#230094"/>
		<stop  offset="0.1381" style="stop-color:#37039F"/>
		<stop  offset="0.4219" style="stop-color:#6C0BBC"/>
		<stop  offset="0.8228" style="stop-color:#BF18EA"/>
		<stop  offset="1" style="stop-color:#E61EFF"/>
	</linearGradient>
	<path style="fill:url(#SVGID_00000028321615989239059300000006307106823222186661_);" d="M5384.99,1009.43v75.55h191.06v145.03
		h-191.06v86.84h217.11v153.71h-409.9V855.72h409.9v153.71H5384.99z"/>
	
		<linearGradient id="SVGID_00000135660586562151161400000006426335040745883288_" gradientUnits="userSpaceOnUse" x1="5820.6094" y1="796.9101" x2="6118.4951" y2="1534.2029">
		<stop  offset="0" style="stop-color:#230094"/>
		<stop  offset="0.1381" style="stop-color:#37039F"/>
		<stop  offset="0.4219" style="stop-color:#6C0BBC"/>
		<stop  offset="0.8228" style="stop-color:#BF18EA"/>
		<stop  offset="1" style="stop-color:#E61EFF"/>
	</linearGradient>
	<path style="fill:url(#SVGID_00000135660586562151161400000006426335040745883288_);" d="M6046.74,1470.57l-178.9-266.61v266.61
		h-192.79V855.72h192.79v258.79l176.29-258.79h217.98l-211.9,294.4L6276,1470.57H6046.74z"/>
</g>
<g>
</g>
<g>
</g>
<g>
</g>
<g>
</g>
<g>
</g>
<g>
</g>
<g>
</g>
<g>
</g>
<g>
</g>
<g>
</g>
<g>
</g>
</svg>
