<?xml version="1.0" encoding="utf-8"?>
<!-- Generator: Adobe Illustrator 26.0.1, SVG Export Plug-In . SVG Version: 6.00 Build 0)  -->
<svg version="1.1" id="Layer_1" xmlns="http://www.w3.org/2000/svg" xmlns:xlink="http://www.w3.org/1999/xlink" x="0px" y="0px"
	 viewBox="0 0 3366 1145" style="enable-background:new 0 0 3366 1145;" xml:space="preserve">
<style type="text/css">
	
		.st0{clip-path:url(#SVGID_00000114037910967372216210000009217415310471255981_);fill:url(#SVGID_00000036237809139116528920000010108016717725024945_);}
	.st1{fill:url(#SVGID_00000068638640718213124220000005687879348171934862_);}
	.st2{fill:url(#SVGID_00000115501802351857739450000010490300841242180992_);}
	.st3{fill:url(#SVGID_00000001629600287909088300000013877749639762804393_);}
	.st4{fill:url(#SVGID_00000156563637177479575670000000640843328953195963_);}
</style>
<g>
	<g>
		<defs>
			<path id="SVGID_1_" d="M1048.4,561.14c0-263.41-213.54-476.95-476.95-476.95C308.04,84.19,94.5,297.73,94.5,561.14
				c0,263.41,213.54,476.95,476.95,476.95C834.86,1038.09,1048.4,824.56,1048.4,561.14 M571.45,325.08
				c-39.93,0-72.29-32.36-72.29-72.29c0-39.92,32.37-72.29,72.29-72.29s72.29,32.37,72.29,72.29
				C643.74,292.72,611.38,325.08,571.45,325.08z M486.39,501.63L341.14,321.41l-79.66-98.84l224.9,108.94l85.07,114.58l85.06-114.58
				l224.9-108.94l-79.66,98.84L656.51,501.63l-85.06,440.15L486.39,501.63z"/>
		</defs>
		
			<linearGradient id="SVGID_00000076600414878801619820000007240115502661141633_" gradientUnits="userSpaceOnUse" x1="369.8318" y1="128.7761" x2="773.0641" y2="993.5107">
			<stop  offset="0" style="stop-color:#230094"/>
			<stop  offset="1" style="stop-color:#E61EFF"/>
		</linearGradient>
		
			<use xlink:href="#SVGID_1_"  style="overflow:visible;fill-rule:evenodd;clip-rule:evenodd;fill:url(#SVGID_00000076600414878801619820000007240115502661141633_);"/>
		<clipPath id="SVGID_00000043419014873906249430000016381938049068111750_">
			<use xlink:href="#SVGID_1_"  style="overflow:visible;"/>
		</clipPath>
		
			<linearGradient id="SVGID_00000129204686213579781100000013923382775082394279_" gradientUnits="userSpaceOnUse" x1="1288.8394" y1="-296.798" x2="1905.3779" y2="1025.373">
			<stop  offset="0" style="stop-color:#230094"/>
			<stop  offset="1" style="stop-color:#E61EFF"/>
		</linearGradient>
		
			<rect x="1108.73" y="-137.18" style="clip-path:url(#SVGID_00000043419014873906249430000016381938049068111750_);fill:url(#SVGID_00000129204686213579781100000013923382775082394279_);" width="953.9" height="953.9"/>
	</g>
	<g>
		
			<linearGradient id="SVGID_00000108990918433746113350000004767988000457596042_" gradientUnits="userSpaceOnUse" x1="1193.9229" y1="263.3801" x2="1460.6108" y2="923.4561">
			<stop  offset="0" style="stop-color:#230094"/>
			<stop  offset="0.1381" style="stop-color:#37039F"/>
			<stop  offset="0.4219" style="stop-color:#6C0BBC"/>
			<stop  offset="0.8228" style="stop-color:#BF18EA"/>
			<stop  offset="1" style="stop-color:#E61EFF"/>
		</linearGradient>
		<path style="fill:url(#SVGID_00000108990918433746113350000004767988000457596042_);" d="M1410.62,722.67h185.84v145.9h-378.63
			V253.72h192.79V722.67z"/>
		
			<linearGradient id="SVGID_00000113311591524454316030000007507219094763872147_" gradientUnits="userSpaceOnUse" x1="1807.6444" y1="178.9236" x2="2070.9202" y2="830.554">
			<stop  offset="0" style="stop-color:#230094"/>
			<stop  offset="0.1381" style="stop-color:#37039F"/>
			<stop  offset="0.4219" style="stop-color:#6C0BBC"/>
			<stop  offset="0.8228" style="stop-color:#BF18EA"/>
			<stop  offset="1" style="stop-color:#E61EFF"/>
		</linearGradient>
		<path style="fill:url(#SVGID_00000113311591524454316030000007507219094763872147_);" d="M2140.1,253.72v152.84h-163.26v462
			h-192.79v-462h-161.53V253.72H2140.1z"/>
		
			<linearGradient id="SVGID_00000105417045020513788210000010185247482304987011_" gradientUnits="userSpaceOnUse" x1="2261.6133" y1="225.6761" x2="2532.6887" y2="896.611">
			<stop  offset="0" style="stop-color:#230094"/>
			<stop  offset="0.1381" style="stop-color:#37039F"/>
			<stop  offset="0.4219" style="stop-color:#6C0BBC"/>
			<stop  offset="0.8228" style="stop-color:#BF18EA"/>
			<stop  offset="1" style="stop-color:#E61EFF"/>
		</linearGradient>
		<path style="fill:url(#SVGID_00000105417045020513788210000010185247482304987011_);" d="M2384.99,407.43v75.55h191.05v145.03
			h-191.05v86.84h217.11v153.71h-409.9V253.72h409.9v153.71H2384.99z"/>
		
			<linearGradient id="SVGID_00000100376778765813450640000006272244077292574102_" gradientUnits="userSpaceOnUse" x1="2820.6096" y1="194.9101" x2="3118.4951" y2="932.2029">
			<stop  offset="0" style="stop-color:#230094"/>
			<stop  offset="0.1381" style="stop-color:#37039F"/>
			<stop  offset="0.4219" style="stop-color:#6C0BBC"/>
			<stop  offset="0.8228" style="stop-color:#BF18EA"/>
			<stop  offset="1" style="stop-color:#E61EFF"/>
		</linearGradient>
		<path style="fill:url(#SVGID_00000100376778765813450640000006272244077292574102_);" d="M3046.74,868.57l-178.9-266.61v266.61
			h-192.79V253.72h192.79v258.79l176.29-258.79h217.98l-211.9,294.4L3276,868.57H3046.74z"/>
	</g>
</g>
<g>
</g>
<g>
</g>
<g>
</g>
<g>
</g>
<g>
</g>
<g>
</g>
<g>
</g>
<g>
</g>
<g>
</g>
<g>
</g>
<g>
</g>
</svg>
